<?xml version="1.0" encoding="UTF-8"?>
<svg id="Layer_2" data-name="Layer 2" xmlns="http://www.w3.org/2000/svg" viewBox="0 0 55.41 14.84">
  <defs>
    <style>
      .cls-1 {fill: #ff8000;
      }
    </style>
  </defs>
  <g id="Layer_1-2" data-name="Layer 1">
    <g>
      <g>
        <path class="cls-1" d="M4.64,14.8c-1.61,0-3.16-.36-4.64-1.09l.89-4.23c.46.41,1.01.77,1.64,1.07.63.3,1.17.46,1.62.46.28,0,.5-.09.67-.26.17-.17.27-.4.3-.67.03-.28-.08-.55-.33-.82-.24-.27-.54-.55-.89-.83-.35-.28-.69-.61-1.03-.96s-.59-.82-.76-1.4c-.17-.58-.2-1.21-.08-1.92.12-1.2.61-2.15,1.48-2.84.87-.69,2.01-1.03,3.44-1.03s2.82.34,4.07,1.01l-.83,3.91c-.34-.32-.76-.58-1.25-.78-.49-.21-.95-.31-1.37-.31-.33,0-.62.08-.85.24-.24.16-.37.4-.4.73-.04.25.06.51.3.76.24.26.53.52.88.78s.69.57,1.03.9c.34.34.6.78.78,1.34.19.56.22,1.18.12,1.88-.12,1.23-.58,2.21-1.39,2.95-.81.73-1.94,1.1-3.39,1.1Z"/>
        <path class="cls-1" d="M9.44,14.62L12.38.72h3.57l-.2,2.66h.24c.5-1.02.98-1.75,1.42-2.2.44-.45,1-.67,1.68-.67.6,0,1.07.17,1.44.5.36.33.6.77.7,1.32.11.55.15,1.1.13,1.66s-.09,1.14-.21,1.75c-.3,1.56-.79,2.81-1.47,3.73s-1.45,1.39-2.32,1.39c-1.46,0-2.24-1.02-2.34-3.06h-.28l-.1,1.49-1.11,5.34h-4.09ZM16.17,7.09c.38,0,.67-.47.87-1.41.19-.99.09-1.49-.3-1.49-.32,0-.66.38-1.03,1.15l-.08.46c.05.5.12.84.19,1.02.07.18.19.27.35.27Z"/>
        <path class="cls-1" d="M19.98,14.51L22.92.62h4.09l-2.96,13.89h-4.07Z"/>
        <path class="cls-1" d="M24.85,14.51l2.1-9.92h4.09l-2.1,9.92h-4.09ZM29.33,3.99c-.65,0-1.15-.15-1.52-.46-.36-.3-.52-.75-.47-1.33.05-.69.3-1.23.73-1.62.44-.39,1-.59,1.71-.59.66,0,1.17.16,1.53.47.36.31.5.76.42,1.34-.05.69-.3,1.22-.73,1.61-.44.38-.99.58-1.67.58Z"/>
        <path class="cls-1" d="M33.84,14.82c-.95-.05-1.67-.4-2.16-1.04-.49-.64-.58-1.67-.28-3.09l.54-2.54h-.97l.62-2.86,2.54-1.77,2.36-1.61h.89l-.56,2.66h2.04l-.75,3.57h-2.04l-.26,1.23c-.23.99.02,1.51.73,1.55.26.03.61-.03,1.03-.18l-1.13,3.69c-.94.3-1.81.43-2.6.38Z"/>
      </g>
      <g>
        <path class="cls-1" d="M41.4,14.51l2.1-9.92h4.09l-2.1,9.92h-4.09ZM45.88,3.99c-.65,0-1.15-.15-1.52-.46-.36-.3-.52-.75-.47-1.33.05-.69.3-1.23.73-1.62.44-.39,1-.59,1.71-.59.66,0,1.17.16,1.53.47.36.31.5.76.42,1.34-.05.69-.3,1.22-.73,1.61-.44.38-.99.58-1.67.58Z"/>
        <path class="cls-1" d="M50.39,14.82c-.95-.05-1.67-.4-2.16-1.04-.49-.64-.58-1.67-.28-3.09l.54-2.54h-.97l.62-2.86,2.54-1.77,2.36-1.61h.89l-.56,2.66h2.04l-.75,3.57h-2.04l-.26,1.23c-.22.99.02,1.51.73,1.55.27.03.61-.03,1.03-.18l-1.13,3.69c-.94.3-1.81.43-2.6.38Z"/>
      </g>
    </g>
  </g>
</svg>