<?xml version="1.0" encoding="UTF-8"?>
<svg id="Layer_2" xmlns="http://www.w3.org/2000/svg" version="1.1" viewBox="0 0 55.4 14.8">
  <!-- Generator: Adobe Illustrator 29.0.1, SVG Export Plug-In . SVG Version: 2.1.0 Build 192)  -->
  <defs>
    <style>
      .st0 {
        fill: #ff8000;
      }
    </style>
  </defs>
  <g id="Layer_1-2">
    <g>
      <g>
        <path class="st0" d="M4.6,14.8c-1.6,0-3.2-.4-4.6-1.1l.9-4.2c.5.4,1,.8,1.6,1.1.6.3,1.2.5,1.6.5s.5,0,.7-.3.3-.4.3-.7c0-.3,0-.6-.3-.8-.2-.3-.5-.6-.9-.8s-.7-.6-1-1-.6-.8-.8-1.4c-.2-.6-.2-1.2,0-1.9.1-1.2.6-2.2,1.5-2.8.9-.7,2-1,3.4-1s2.8.3,4.1,1l-.8,3.9c-.3-.3-.8-.6-1.2-.8-.5-.2-.9-.3-1.4-.3s-.6,0-.8.2c-.2.2-.4.4-.4.7,0,.2,0,.5.3.8.2.3.5.5.9.8s.7.6,1,.9c.3.3.6.8.8,1.3.2.6.2,1.2.1,1.9-.1,1.2-.6,2.2-1.4,2.9-.8.7-1.9,1.1-3.4,1.1h0Z"/>
        <path class="st0" d="M9.4,14.6L12.4.7h3.6l-.2,2.7h.2c.5-1,1-1.8,1.4-2.2.4-.4,1-.7,1.7-.7s1.1.2,1.4.5c.4.3.6.8.7,1.3.1.5.1,1.1.1,1.7s0,1.1-.2,1.8c-.3,1.6-.8,2.8-1.5,3.7s-1.5,1.4-2.3,1.4c-1.5,0-2.2-1-2.3-3.1h-.3v1.5c-.1,0-1.2,5.3-1.2,5.3h-4.1ZM16.2,7.1c.4,0,.7-.5.9-1.4.2-1,0-1.5-.3-1.5s-.7.4-1,1.2v.5c0,.5,0,.8.1,1s.2.3.3.3Z"/>
        <path class="st0" d="M20,14.5L22.9.6h4.1l-3,13.9h-4.1Z"/>
        <path class="st0" d="M24.9,14.5l2.1-9.9h4.1l-2.1,9.9h-4.1ZM29.3,4c-.6,0-1.1-.2-1.5-.5-.4-.3-.5-.8-.5-1.3,0-.7.3-1.2.7-1.6.4-.4,1-.6,1.7-.6s1.2.2,1.5.5c.4.3.5.8.4,1.3,0,.7-.3,1.2-.7,1.6-.4.4-1,.6-1.7.6Z"/>
        <path class="st0" d="M33.8,14.8c-1,0-1.7-.4-2.2-1-.5-.6-.6-1.7-.3-3.1l.5-2.5h-1l.6-2.9,2.5-1.8,2.4-1.6h.9l-.6,2.7h2l-.8,3.6h-2l-.3,1.2c-.2,1,0,1.5.7,1.6.3,0,.6,0,1-.2l-1.1,3.7c-.9.3-1.8.4-2.6.4h0Z"/>
      </g>
      <g>
        <path class="st0" d="M41.4,14.5l2.1-9.9h4.1l-2.1,9.9h-4.1ZM45.9,4c-.7,0-1.2-.2-1.5-.5-.4-.3-.5-.8-.5-1.3,0-.7.3-1.2.7-1.6.4-.4,1-.6,1.7-.6s1.2.2,1.5.5c.4.3.5.8.4,1.3,0,.7-.3,1.2-.7,1.6-.4.4-1,.6-1.7.6Z"/>
        <path class="st0" d="M50.4,14.8c-1,0-1.7-.4-2.2-1s-.6-1.7-.3-3.1l.5-2.5h-1l.6-2.9,2.5-1.8,2.4-1.6h.9l-.6,2.7h2l-.8,3.6h-2l-.3,1.2c-.2,1,0,1.5.7,1.6.3,0,.6,0,1-.2l-1.1,3.7c-.9.3-1.8.4-2.6.4h0Z"/>
      </g>
    </g>
  </g>
</svg>