<?xml version="1.0" encoding="UTF-8"?>
<svg id="Layer_2" xmlns="http://www.w3.org/2000/svg" version="1.1" viewBox="0 0 1000 267.1">
  <!-- Generator: Adobe Illustrator 29.0.1, SVG Export Plug-In . SVG Version: 2.1.0 Build 192)  -->
  <defs>
    <style>
      .st0 {
        fill: #ff8000;
      }
    </style>
  </defs>
  <path class="st0" d="M179.1,160.6c-3.2-9.7-7.8-17.5-13.7-23.4-5.9-5.9-11.9-11.1-18-15.8-6.1-4.6-11.3-9.2-15.4-13.7s-5.9-8.9-5.2-13.3c.5-5.8,2.8-10,6.9-12.8,4.2-2.8,9.1-4.2,14.9-4.2s15.3,1.8,23.9,5.4c8.5,3.6,15.8,8.1,21.8,13.7l14.5-68.2c-21.7-11.8-45.4-17.7-71-17.7s-45,6-60.1,18c-15.1,12-23.7,28.5-25.8,49.5-2.1,12.2-1.6,23.4,1.4,33.4,3,10,7.4,18.2,13.3,24.4s11.9,11.8,18,16.8c6.1,5,11.3,9.8,15.6,14.5,4.3,4.7,6.2,9.5,5.7,14.4-.5,4.8-2.2,8.8-5.2,11.8-3,3-6.9,4.5-11.8,4.5-7.8,0-17.3-2.7-28.2-8-11-5.3-20.5-11.5-28.6-18.7l-15.6,73.7c25.8,12.7,52.8,19,81,19s45.1-6.4,59.2-19.2c14.1-12.8,22.2-29.9,24.2-51.4,1.8-12.2,1.2-23.2-2.1-32.9Z"/>
  <path class="st0" d="M386.9,74.5c.3-9.7-.4-19.3-2.2-28.9-1.9-9.6-5.9-17.2-12.3-23-6.4-5.8-14.7-8.7-25.1-8.7s-21.5,3.9-29.3,11.8c-7.7,7.8-16,20.7-24.8,38.4h-4.2l3.5-46.4h-62.3l-51.2,242.3h71.3l19.4-93.1,1.7-26h4.8c1.8,35.5,15.5,53.3,40.9,53.3s28.7-8.1,40.5-24.2c11.8-16.2,20.3-37.8,25.6-65.1,2.1-10.6,3.3-20.8,3.6-30.5ZM311.6,104.3c-3.5,16.4-8.5,24.6-15.2,24.6s-4.8-1.6-6.1-4.7c-1.3-3.1-2.4-9.1-3.3-17.8l1.4-8c6.5-13.4,12.5-20.1,18-20.1s8.4,8.7,5.2,26Z"/>
  <polygon class="st0" points="416.6 16.6 365.3 258.9 436.3 258.9 487.9 16.6 416.6 16.6"/>
  <path class="st0" d="M501.9,67.5c6.3,5.3,15.2,8,26.5,8s21.5-3.3,29.1-10c7.6-6.7,11.9-16,12.8-28,1.4-10.2-1-17.9-7.3-23.4-6.2-5.4-15.1-8.1-26.7-8.1s-22.2,3.4-29.8,10.2c-7.6,6.8-11.9,16.2-12.8,28.2-.9,10.2,1.8,17.9,8.1,23.2Z"/>
  <polygon class="st0" points="486.8 85.8 450.2 258.9 521.5 258.9 558.2 85.8 486.8 85.8"/>
  <path class="st0" d="M775.6,85.8h-45.1s45.1,0,30.7,67.9c0,0,0,0,0,0l-22.3,105.2h71.3l36.7-173.1h-71.3Z"/>
  <path class="st0" d="M790.6,67.5c6.3,5.3,15.2,8,26.5,8s21.5-3.3,29.1-10c7.6-6.7,11.9-16,12.8-28,1.4-10.2-1-17.9-7.3-23.4-6.2-5.4-15.1-8.1-26.7-8.1s-22.2,3.4-29.8,10.2c-7.6,6.8-11.9,16.2-12.8,28.2-.9,10.2,1.8,17.9,8.1,23.2Z"/>
  <path class="st0" d="M934.5,148.2h35.7l13.2-62.3h-35.7l9.7-46.4h-15.6l-41.2,28-44.3,30.8-10.7,49.9h17l-9.3,44.3c-5.3,24.7-3.7,42.6,4.8,53.8,8.5,11.2,21.1,17.2,37.7,18.2,13.8.9,29-1.3,45.4-6.6l19.7-64.4c-7.4,2.5-13.4,3.6-18,3.1-12.5-.7-16.7-9.7-12.8-27l4.5-21.5Z"/>
  <path class="st0" d="M658.9,85.8l9.7-46.4h-15.6l-41.2,28-44.3,30.8-10.7,49.9h17l-9.3,44.3c-5.3,24.7-3.7,42.6,4.8,53.8,8.5,11.2,21.1,18,37.7,18.2,25.5.2,39.6-5.5,51.9-13.1l13.2-57.9c-7.4,2.5-13.4,3.6-18,3.1-12.5-.7-16.7-9.7-12.8-27l4.5-21.5h35.7l6.2-29.2c8.7-33.1,40.9-33.1,40.9-33.1h-69.6Z"/>
  <polygon class="st0" points="765.9 39.5 733.5 79.3 776.4 65.6 765.9 39.5"/>
  <polygon class="st0" points="708.8 46.1 692.1 59.4 725.4 80.2 708.8 46.1"/>
</svg>